<svg width="102" height="102" viewBox="0 0 102 102" fill="none" xmlns="http://www.w3.org/2000/svg">
<circle cx="51" cy="51" r="51" fill="#065bba"/>
<path d="M59.3335 41C63.2428 41 64.3642 41 65.7107 42.0332C66.0573 42.2992 66.3677 42.6095 66.6337 42.9562C67.6668 44.3027 67.6668 46.2574 67.6668 50.1667V57.6667C67.6668 62.3807 67.6668 64.7377 66.2023 66.2022C64.7378 67.6667 62.3808 67.6667 57.6668 67.6667H44.3335C39.6194 67.6667 37.2624 67.6667 35.798 66.2022C34.3335 64.7377 34.3335 62.3807 34.3335 57.6667V50.1667C34.3335 46.2574 34.3335 44.3027 35.3667 42.9562C35.6327 42.6095 35.943 42.2992 36.2897 42.0332C37.6362 41 38.7575 41 42.6668 41" stroke="white" stroke-width="2.5" stroke-linecap="round"/>
<path d="M59.3332 42.6667L57.8568 38.9758C57.2198 37.3833 56.6655 35.5769 55.0275 34.766C54.1538 34.3334 53.1025 34.3334 50.9998 34.3334C48.8972 34.3334 47.8458 34.3334 46.9721 34.766C45.3342 35.5769 44.7799 37.3833 44.1429 38.9758L42.6665 42.6667" stroke="white" stroke-width="2.5" stroke-linecap="round" stroke-linejoin="round"/>
<path d="M56.8332 54.3333C56.8332 57.555 54.2215 60.1667 50.9998 60.1667C47.7782 60.1667 45.1665 57.555 45.1665 54.3333C45.1665 51.1117 47.7782 48.5 50.9998 48.5C54.2215 48.5 56.8332 51.1117 56.8332 54.3333Z" stroke="white" stroke-width="2.5"/>
<path d="M51 41H51.015" stroke="white" stroke-width="3.33333" stroke-linecap="round" stroke-linejoin="round"/>
</svg>
