<svg width="102" height="102" viewBox="0 0 102 102" fill="none" xmlns="http://www.w3.org/2000/svg">
<circle cx="51" cy="51" r="51" fill="#9634FF"/>
<path d="M61.9551 45.0221C61.9701 45.022 61.985 45.022 62 45.022C66.9706 45.022 71 49.0588 71 54.0385C71 58.6796 67.5 62.5016 63 63M61.9551 45.0221C61.9848 44.6921 62 44.3579 62 44.0202C62 37.9339 57.0751 33 51 33C45.2465 33 40.5247 37.4253 40.0408 43.0638M61.9551 45.0221C61.7507 47.2952 60.8572 49.3692 59.4857 51.033M40.0408 43.0638C34.968 43.5475 31 47.8278 31 53.0367C31 57.8835 34.4355 61.9264 39 62.8546M40.0408 43.0638C40.3565 43.0337 40.6765 43.0183 41 43.0183C43.2516 43.0183 45.3295 43.7639 47.001 45.022" stroke="white" stroke-width="3" stroke-linecap="round" stroke-linejoin="round"/>
<path d="M51 53L51 69M51 53C49.5995 53 46.9831 56.9886 46 58M51 53C52.4005 53 55.0169 56.9886 56 58" stroke="white" stroke-width="3" stroke-linecap="round" stroke-linejoin="round"/>
</svg>
