<svg xmlns="http://www.w3.org/2000/svg" width="162" height="162" viewBox="0 0 162 162" fill="none">
  <g clip-path="url(#clip0_7_1396)">
    <path d="M130.613 67.77C126.022 44.4825 105.57 27 81 27C61.4925 27 44.55 38.07 36.1125 54.27C15.795 56.43 0 73.6425 0 94.5C0 116.842 18.1575 135 40.5 135H128.25C146.88 135 162 119.88 162 101.25C162 83.43 148.163 68.985 130.613 67.77ZM128.25 121.5H40.5C25.5825 121.5 13.5 109.418 13.5 94.5C13.5 80.6625 23.8275 69.12 37.53 67.7025L44.7525 66.96L48.1275 60.5475C54.54 48.195 67.095 40.5 81 40.5C98.685 40.5 113.94 53.055 117.382 70.4025L119.408 80.5275L129.735 81.27C140.265 81.945 148.5 90.7875 148.5 101.25C148.5 112.387 139.387 121.5 128.25 121.5ZM54 87.75H71.2125V108H90.7875V87.75H108L81 60.75L54 87.75Z" fill="url(#paint0_linear_7_1396)"/>
  </g>
  <defs>
    <linearGradient id="paint0_linear_7_1396" x1="81" y1="27" x2="81" y2="135" gradientUnits="userSpaceOnUse">
      <stop stop-color="#0552FF"/>
      <stop offset="1" stop-color="#0552FF"/>
    </linearGradient>
    <clipPath id="clip0_7_1396">
      <rect width="162" height="162" fill="#0552FF"/>
    </clipPath>
  </defs>
</svg>
